<svg xmlns="http://www.w3.org/2000/svg" width="32" height="32" fill="none"><path fill="#716FE7" d="M21.777 29.333H10.22c-4.519 0-7.554-3.17-7.554-7.888v-10.89c0-4.718 3.035-7.889 7.554-7.889h11.557c4.52 0 7.555 3.171 7.555 7.89v10.89c0 4.718-3.036 7.887-7.556 7.887Z" opacity=".4"/><path fill="#716FE7" fill-rule="evenodd" d="M14.993 11.566a3.318 3.318 0 0 1-3.313 3.314 3.317 3.317 0 0 1-3.314-3.314 3.318 3.318 0 0 1 3.314-3.314 3.319 3.319 0 0 1 3.313 3.314Zm10.874 7.217c.31.301.533.645.68 1.012.444 1.11.213 2.443-.261 3.541a4.851 4.851 0 0 1-2.998 2.729 6.104 6.104 0 0 1-1.865.275H10.248c-1.112 0-2.096-.258-2.902-.744-.506-.303-.595-1.003-.22-1.46.626-.76 1.245-1.522 1.869-2.291 1.19-1.473 1.99-1.9 2.881-1.524.362.154.724.387 1.098.633.994.659 2.377 1.563 4.198.581 1.245-.68 1.968-1.846 2.597-2.86l.013-.02.126-.203c.214-.346.424-.686.663-1 .296-.388 1.395-1.6 2.815-.737.905.544 1.666 1.28 2.481 2.068Z" clip-rule="evenodd"/></svg>