<svg xmlns="http://www.w3.org/2000/svg" width="32" height="32" fill="none"><path fill="#716FE7" d="M22.219 29.32H9.779a7.124 7.124 0 0 1-5.247-1.852A7.128 7.128 0 0 1 2.68 22.22V9.78a7.127 7.127 0 0 1 1.85-5.248A7.129 7.129 0 0 1 9.78 2.68h12.439a7.117 7.117 0 0 1 5.244 1.85 7.162 7.162 0 0 1 1.857 5.25v12.44a7.133 7.133 0 0 1-1.852 5.248 7.13 7.13 0 0 1-5.249 1.851Z" opacity=".4"/><path fill="#716FE7" d="m22.74 13.863-8.738 8.78a2.399 2.399 0 0 1-1.675.69h-3.05a.617.617 0 0 1-.442-.182.608.608 0 0 1-.169-.442l.078-3.083c.013-.612.26-1.184.688-1.613l6.193-6.205a.282.282 0 0 1 .39 0l2.171 2.163a.82.82 0 0 0 .572.234c.48 0 .856-.39.856-.858a.882.882 0 0 0-.233-.599c-.04-.052-2.107-2.11-2.107-2.11a.346.346 0 0 1 0-.482l.87-.885a2.05 2.05 0 0 1 2.908 0l1.687 1.691a2.068 2.068 0 0 1 0 2.901Z"/></svg>