<svg xmlns="http://www.w3.org/2000/svg" width="32" height="32" fill="none"><path fill="#716FE7" d="M21.434 2.666h4.515c1.87 0 3.384 1.528 3.384 3.414v4.552c0 1.886-1.515 3.414-3.384 3.414h-4.515c-1.87 0-3.385-1.528-3.385-3.414V6.08c0-1.886 1.515-3.414 3.385-3.414Z" opacity=".4"/><path fill="#716FE7" fill-rule="evenodd" d="M6.051 2.666h4.515c1.87 0 3.384 1.528 3.384 3.414v4.552c0 1.886-1.514 3.414-3.384 3.414H6.05c-1.87 0-3.385-1.528-3.385-3.414V6.08c0-1.886 1.516-3.414 3.385-3.414Zm0 15.288h4.515c1.87 0 3.384 1.527 3.384 3.413v4.553c0 1.884-1.514 3.413-3.384 3.413H6.05c-1.87 0-3.385-1.53-3.385-3.413v-4.553c0-1.886 1.516-3.413 3.385-3.413Zm19.898 0h-4.515c-1.87 0-3.385 1.527-3.385 3.413v4.553c0 1.884 1.515 3.413 3.385 3.413h4.514c1.87 0 3.385-1.53 3.385-3.413v-4.553c0-1.886-1.515-3.413-3.384-3.413Z" clip-rule="evenodd"/></svg>